<svg xmlns="http://www.w3.org/2000/svg" viewBox="0 0 642.94 502"><defs><style>.cls-1,.cls-2,.cls-5{fill:none;stroke:#fff;}.cls-1{stroke-width:2px;}.cls-2,.cls-5{stroke-linecap:round;stroke-linejoin:round;}.cls-3,.cls-4{font-size:24px;font-family:Lato-Heavy, Lato;}.cls-3{fill:#c8eb96;}.cls-4{fill:#ffaf7d;}.cls-5{stroke-dasharray:1 4;}.cls-6{fill:#fff;}</style></defs><title>Asset 2</title><g id="Layer_2" data-name="Layer 2"><g id="Layer_1-2" data-name="Layer 1"><path class="cls-1" d="M194.59,501H7.41C3.88,501,1,493.69,1,484.77V17.23C1,8.31,3.88,1,7.41,1H194.59C198.12,1,201,8.31,201,17.23V484.77C201,493.69,198.12,501,194.59,501Z"/><line class="cls-2" x1="1" y1="58.14" x2="201" y2="58.14"/><text class="cls-3" transform="translate(73.9 260.1)">0xF0</text><path class="cls-1" d="M594,501H406.77c-3.53,0-6.41-7.31-6.41-16.23V17.23c0-8.92,2.88-16.23,6.41-16.23H594c3.52,0,6.41,7.31,6.41,16.23V484.77C600.36,493.69,597.47,501,594,501Z"/><line class="cls-2" x1="400.36" y1="58.14" x2="600.36" y2="58.14"/><text class="cls-4" transform="translate(425.27 40.95)">Header (0x10)</text><text class="cls-3" transform="translate(473.09 180.1)">0x90</text><text class="cls-3" transform="translate(473.09 438.1)">0x50</text><line class="cls-2" x1="400.36" y1="311.02" x2="600.36" y2="311.02"/><line class="cls-2" x1="400.36" y1="368.02" x2="600.36" y2="368.02"/><text class="cls-4" transform="translate(425.27 350.96)">Header (0x10)</text><line class="cls-5" x1="642.44" y1="328.05" x2="615.17" y2="355.32"/><polygon class="cls-6" points="614.22 348.42 616.48 354.01 622.08 356.27 608.84 361.65 614.22 348.42"/></g></g></svg>