<svg xmlns="http://www.w3.org/2000/svg" viewBox="0 0 772.94 511.36"><defs><style>.cls-1,.cls-3,.cls-4,.cls-5{fill:none;}.cls-1{stroke:#fff;stroke-linecap:round;stroke-linejoin:round;stroke-dasharray:1 4;}.cls-2{fill:#fff;}.cls-3{stroke:#c8eb96;}.cls-3,.cls-4{stroke-width:2px;}.cls-4,.cls-5{stroke:#ffaf7d;}.cls-5{stroke-width:2.07px;}.cls-6,.cls-7{font-size:24px;font-family:Lato-Heavy, Lato;}.cls-6{fill:#c8eb96;}.cls-7{fill:#ffaf7d;}</style></defs><title>Asset 3</title><g id="Layer_2" data-name="Layer 2"><g id="Layer_1-2" data-name="Layer 1"><path class="cls-1" d="M556,95.52h58.2a10,10,0,0,1,10,10.32l-1.76,54.43"/><polygon class="cls-2" points="550.25 101.07 547.89 95.52 550.25 89.96 537.08 95.52 550.25 101.07"/><polygon class="cls-2" points="617.05 155.88 622.53 158.42 628.16 156.24 622.18 169.22 617.05 155.88"/><path class="cls-1" d="M218.55,95.52h-58.2a10,10,0,0,0-10,10.32l1.76,54.43"/><polygon class="cls-2" points="214.34 89.96 216.7 95.52 214.34 101.07 227.5 95.52 214.34 89.96"/><polygon class="cls-2" points="146.43 156.24 152.06 158.42 157.53 155.88 152.41 169.22 146.43 156.24"/><path class="cls-1" d="M556,480.36h58.2a10,10,0,0,0,10-10.32l-1.76-54.43"/><polygon class="cls-2" points="550.25 485.92 547.89 480.36 550.25 474.81 537.08 480.36 550.25 485.92"/><polygon class="cls-2" points="628.16 419.64 622.53 417.46 617.05 420 622.18 406.66 628.16 419.64"/><path class="cls-1" d="M218.55,480.36h-58.2a10,10,0,0,1-10-10.32l1.76-54.43"/><polygon class="cls-2" points="214.34 474.81 216.7 480.36 214.34 485.92 227.5 480.36 214.34 474.81"/><polygon class="cls-2" points="157.53 420 152.06 417.46 146.43 419.64 152.41 406.66 157.53 420"/><line class="cls-1" x1="383.71" y1="0.5" x2="383.71" y2="48.02"/><polygon class="cls-2" points="378.15 43.8 383.71 46.16 389.26 43.8 383.71 56.97 378.15 43.8"/><rect class="cls-3" x="471.93" y="189.53" width="300" height="60" rx="10" ry="10"/><rect class="cls-4" x="471.93" y="326.45" width="300" height="60" rx="10" ry="10"/><path class="cls-5" d="M290.32,386.45H11.75C5.86,386.45,1,382,1,376.45v-40c0-5.5,4.82-10,10.71-10H290.32c5.89,0,10.72,4.5,10.72,10v40C301,382,296.21,386.45,290.32,386.45Z"/><rect class="cls-3" x="243.71" y="450.36" width="280" height="60" rx="10" ry="10"/><rect class="cls-3" x="243.71" y="65.95" width="280" height="60" rx="10" ry="10"/><path class="cls-5" d="M290.32,249.53H11.75C5.86,249.53,1,245,1,239.53v-40c0-5.5,4.82-10,10.71-10H290.32c5.89,0,10.72,4.5,10.72,10v40C301,245,296.21,249.53,290.32,249.53Z"/><line class="cls-1" x1="621.94" y1="268.68" x2="621.94" y2="307.24"/><polygon class="cls-2" points="616.38 272.89 621.94 270.54 627.49 272.89 621.94 259.73 616.38 272.89"/><polygon class="cls-2" points="616.38 303.03 621.94 305.39 627.49 303.03 621.94 316.2 616.38 303.03"/><line class="cls-1" x1="151.04" y1="268.68" x2="151.04" y2="307.24"/><polygon class="cls-2" points="145.48 272.89 151.04 270.54 156.59 272.89 151.04 259.73 145.48 272.89"/><polygon class="cls-2" points="145.48 303.03 151.04 305.39 156.59 303.03 151.04 316.2 145.48 303.03"/><text class="cls-6" transform="translate(254.13 103.56)">Free: yes&lt;br&gt;Size: 0x40</text><text class="cls-6" transform="translate(255.35 490.3)">Free: yes&lt;br&gt;Size: 0x10</text><text class="cls-6" transform="translate(486.53 226.95)">Free: yes&lt;br&gt;Size: 0x100</text><text class="cls-7" transform="translate(497.82 363.86)">Free: no&lt;br&gt;Size: 0x40</text><text class="cls-7" transform="translate(26.92 364.86)">Free: no&lt;br&gt;Size: 0x30</text><text class="cls-7" transform="translate(19.96 227.95)">Free: no&lt;br&gt;Size: 0x100</text></g></g></svg>