<svg xmlns="http://www.w3.org/2000/svg" viewBox="0 0 333.02 402.59"><defs><style>.cls-1,.cls-2{fill:none;stroke:#fff;}.cls-1{stroke-width:2px;}.cls-2{stroke-linecap:round;stroke-linejoin:round;}.cls-3,.cls-4{font-size:24px;font-family:Lato-Heavy, Lato;}.cls-3{fill:#afe1ff;}.cls-4{fill:#c8eb96;}.cls-5{font-size:22.5px;fill:#fff;font-family:SourceCodePro-Regular, Source Code Pro;}</style></defs><title>Asset 1</title><g id="Layer_2" data-name="Layer 2"><g id="Layer_1-2" data-name="Layer 1"><path class="cls-1" d="M195.38,389.36H7.44c-3.54,0-6.44-5.62-6.44-12.5v-360C1,10,3.9,4.36,7.44,4.36H195.38c3.54,0,6.44,5.63,6.44,12.5v360C201.82,383.74,198.92,389.36,195.38,389.36Z"/><line class="cls-2" x1="1" y1="100.61" x2="201.82" y2="100.61"/><line class="cls-2" x1="1" y1="196.86" x2="201.82" y2="196.86"/><line class="cls-2" x1="1" y1="293.11" x2="201.82" y2="293.11"/><line class="cls-2" x1="1" y1="343.11" x2="201.82" y2="343.11"/><text class="cls-3" transform="translate(45.19 67.42)">Boot ROM</text><text class="cls-4" transform="translate(24.86 252.57)">Firmware code</text><text class="cls-4" transform="translate(71.75 372.61)">Stack</text><text class="cls-4" transform="translate(27.21 326.11)">Firmware data</text><text class="cls-5" transform="translate(228.62 109.92)">00020000</text><text class="cls-5" transform="translate(227.37 203.67)">00040000</text><text class="cls-5" transform="translate(227.37 301.17)">00060000</text><text class="cls-5" transform="translate(227.37 396.17)">00080000</text><text class="cls-5" transform="translate(227.37 18.67)">00000000</text></g></g></svg>