<svg xmlns="http://www.w3.org/2000/svg" viewBox="0 0 766.92 350.82"><defs><style>.cls-1{fill:#00242d;}.cls-1,.cls-8{stroke:#fff;}.cls-1,.cls-10{stroke-width:2px;}.cls-2,.cls-4{fill:#afe1ff;}.cls-10,.cls-12,.cls-3,.cls-8{fill:none;}.cls-3{stroke:#afe1ff;}.cls-3,.cls-8{stroke-linecap:round;stroke-linejoin:round;stroke-dasharray:1 4;}.cls-4,.cls-5{font-size:20px;}.cls-11,.cls-4,.cls-5,.cls-7,.cls-9{font-family:Lato-Heavy, Lato;}.cls-5,.cls-7{fill:#002b36;}.cls-6{fill:#ffe17d;}.cls-7{font-size:18px;}.cls-9{font-size:24px;fill:#fff;}.cls-10{stroke:#c8eb96;}.cls-11{font-size:16px;fill:#c8eb96;}.cls-12{stroke:#c8503c;stroke-width:4px;}</style></defs><title>Asset 10</title><g id="Layer_2" data-name="Layer 2"><g id="Layer_1-2" data-name="Layer 1"><rect class="cls-1" x="453.92" y="1" width="312" height="308" rx="10" ry="10"/><rect class="cls-1" x="1" y="1" width="312" height="308" rx="10" ry="10"/><rect class="cls-2" x="481.63" y="258.98" width="100" height="26.74"/><rect class="cls-2" x="481.63" y="229.77" width="100" height="26.74"/><line class="cls-3" x1="600.07" y1="152.31" x2="623.59" y2="152.31"/><text class="cls-4" transform="translate(509.71 147.52)">Boot</text><text class="cls-4" transform="translate(510.63 218.52)">User</text><text class="cls-5" transform="translate(509 278.82)">Apps</text><text class="cls-5" transform="translate(507.15 248.82)">Linux</text><rect class="cls-2" x="481.63" y="159.63" width="100" height="26.74"/><text class="cls-5" transform="translate(506.21 179.67)">sboot</text><rect class="cls-6" x="481.63" y="83.15" width="100" height="26.74"/><rect class="cls-6" x="640.93" y="138.95" width="100" height="26.74"/><text class="cls-7" transform="translate(647.36 158.99)">Boot ROM</text><line class="cls-8" x1="312.74" y1="152.31" x2="454.14" y2="152.31"/><text class="cls-9" transform="translate(55 164.92)">Main CPU (Exynos)</text><rect class="cls-10" x="467.76" y="15.25" width="126.07" height="279.5" rx="10" ry="10"/><text class="cls-11" transform="translate(488.54 52.99)">NAND ﬂash</text><line class="cls-8" x1="600.07" y1="152.31" x2="623.59" y2="152.31"/><rect class="cls-10" x="627.42" y="17.02" width="126.07" height="279.5" rx="10" ry="10"/><text class="cls-11" transform="translate(670.13 52.99)">ARM</text><text class="cls-5" transform="translate(515.4 103.32)">FW</text><text class="cls-9" transform="translate(572.74 343.82)">eMMC</text><rect class="cls-6" x="36.47" y="251.95" width="240" height="26.74"/><text class="cls-5" transform="translate(73.43 271.99)">Exynos Boot ROM</text><line class="cls-12" x1="474.33" y1="197.31" x2="586.44" y2="288.97"/><line class="cls-12" x1="474.33" y1="288.97" x2="586.44" y2="197.31"/><line class="cls-12" x1="474.33" y1="126.3" x2="586.44" y2="217.97"/><line class="cls-12" x1="474.33" y1="217.97" x2="586.44" y2="126.3"/></g></g></svg>
