<svg height="665.1999959945679" version="1.1" width="611.375" xmlns="http://www.w3.org/2000/svg" xmlns:xlink="http://www.w3.org/1999/xlink" style="overflow: hidden; position: relative; left: -0.400024px;" viewBox="0 0 611.375 665.1999959945679" preserveAspectRatio="xMidYMid meet"><desc>Created with Raphaël @@VERSION</desc><defs><path stroke-linecap="round" d="M5,0 0,2.5 5,5z" id="raphael-marker-block"></path><marker id="raphael-marker-endblock33-obj9965" markerHeight="3" markerWidth="3" orient="auto" refX="1.5" refY="1.5"><use xlink:href="#raphael-marker-block" transform="rotate(180 1.5 1.5) scale(0.6,0.6)" stroke-width="1.6667" fill="black" stroke="none"></use></marker><marker id="raphael-marker-endblock33-obj9966" markerHeight="3" markerWidth="3" orient="auto" refX="1.5" refY="1.5"><use xlink:href="#raphael-marker-block" transform="rotate(180 1.5 1.5) scale(0.6,0.6)" stroke-width="1.6667" fill="black" stroke="none"></use></marker><marker id="raphael-marker-endblock33-obj9968" markerHeight="3" markerWidth="3" orient="auto" refX="1.5" refY="1.5"><use xlink:href="#raphael-marker-block" transform="rotate(180 1.5 1.5) scale(0.6,0.6)" stroke-width="1.6667" fill="black" stroke="none"></use></marker><marker id="raphael-marker-endblock33-obj9970" markerHeight="3" markerWidth="3" orient="auto" refX="1.5" refY="1.5"><use xlink:href="#raphael-marker-block" transform="rotate(180 1.5 1.5) scale(0.6,0.6)" stroke-width="1.6667" fill="black" stroke="none"></use></marker><marker id="raphael-marker-endblock33-obj9971" markerHeight="3" markerWidth="3" orient="auto" refX="1.5" refY="1.5"><use xlink:href="#raphael-marker-block" transform="rotate(180 1.5 1.5) scale(0.6,0.6)" stroke-width="1.6667" fill="black" stroke="none"></use></marker><marker id="raphael-marker-endblock33-obj9972" markerHeight="3" markerWidth="3" orient="auto" refX="1.5" refY="1.5"><use xlink:href="#raphael-marker-block" transform="rotate(180 1.5 1.5) scale(0.6,0.6)" stroke-width="1.6667" fill="black" stroke="none"></use></marker><marker id="raphael-marker-endblock33-obj9974" markerHeight="3" markerWidth="3" orient="auto" refX="1.5" refY="1.5"><use xlink:href="#raphael-marker-block" transform="rotate(180 1.5 1.5) scale(0.6,0.6)" stroke-width="1.6667" fill="black" stroke="none"></use></marker><marker id="raphael-marker-endblock33-obj9976" markerHeight="3" markerWidth="3" orient="auto" refX="1.5" refY="1.5"><use xlink:href="#raphael-marker-block" transform="rotate(180 1.5 1.5) scale(0.6,0.6)" stroke-width="1.6667" fill="black" stroke="none"></use></marker><marker id="raphael-marker-endblock33-obj9978" markerHeight="3" markerWidth="3" orient="auto" refX="1.5" refY="1.5"><use xlink:href="#raphael-marker-block" transform="rotate(180 1.5 1.5) scale(0.6,0.6)" stroke-width="1.6667" fill="black" stroke="none"></use></marker></defs><rect x="0" y="0" width="135" height="36" rx="20" ry="20" fill="#ffffff" stroke="#000000" style="" stroke-width="3" class="flowchart" id="st" transform="matrix(1,0,0,1,20,27.6)"></rect><text style="text-anchor: start; font-family: &quot;Arial&quot;; font-size: 14px;" x="10" y="18" text-anchor="start" font-family="&quot;Arial&quot;" font-size="14px" stroke="none" fill="#000000" id="stt" class="flowchartt" transform="matrix(1,0,0,1,20,27.6)" stroke-width="1"><tspan dy="5">Exynos boot ROM</tspan></text><path style="" fill="#ffffff" stroke="#000000" d="M34.875,19.799999713897705L0,39.59999942779541L69.75,79.19999885559082L139.5,39.59999942779541L69.75,0L0,39.59999942779541" stroke-width="3" id="emmc_cond" class="flowchart" transform="matrix(1,0,0,1,17.75,119.6)"></path><text style="text-anchor: start; font-family: &quot;Arial&quot;; font-size: 14px;" x="39.875" y="39.59999942779541" text-anchor="start" font-family="&quot;Arial&quot;" font-size="14px" stroke="none" fill="#000000" id="emmc_condt" class="flowchartt" transform="matrix(1,0,0,1,17.75,119.6)" stroke-width="1"><tspan dy="-3.399998664855957">eMMC</tspan><tspan dy="16.8" x="39.875">bootable?</tspan></text><rect x="0" y="0" width="154" height="36" rx="0" ry="0" fill="#ffffff" stroke="#000000" style="" stroke-width="3" class="flowchart" id="load_emmc" transform="matrix(1,0,0,1,10.5,276.4)"></rect><text style="text-anchor: start; font-family: &quot;Arial&quot;; font-size: 14px;" x="10" y="18" text-anchor="start" font-family="&quot;Arial&quot;" font-size="14px" stroke="none" fill="#000000" id="load_emmct" class="flowchartt" transform="matrix(1,0,0,1,10.5,276.4)" stroke-width="1"><tspan dy="5">Load 1bl from eMMC</tspan></text><rect x="0" y="0" width="133" height="36" rx="0" ry="0" fill="#ffffff" stroke="#000000" style="" stroke-width="3" class="flowchart" id="sign" transform="matrix(1,0,0,1,21,390)"></rect><text style="text-anchor: start; font-family: &quot;Arial&quot;; font-size: 14px;" x="10" y="18" text-anchor="start" font-family="&quot;Arial&quot;" font-size="14px" stroke="none" fill="#000000" id="signt" class="flowchartt" transform="matrix(1,0,0,1,21,390)" stroke-width="1"><tspan dy="5">Validate signature</tspan></text><path style="" fill="#ffffff" stroke="#000000" d="M25.5,13.5L0,27L51,54L102,27L51,0L0,27" stroke-width="3" id="sign_cond" class="flowchart" transform="matrix(1,0,0,1,36.5,494.6)"></path><text style="text-anchor: start; font-family: &quot;Arial&quot;; font-size: 14px;" x="30.5" y="27" text-anchor="start" font-family="&quot;Arial&quot;" font-size="14px" stroke="none" fill="#000000" id="sign_condt" class="flowchartt" transform="matrix(1,0,0,1,36.5,494.6)" stroke-width="1"><tspan dy="5">Valid?</tspan></text><rect x="0" y="0" width="100" height="36" rx="20" ry="20" fill="#ffffff" stroke="#000000" style="" stroke-width="3" class="flowchart" id="boot" transform="matrix(1,0,0,1,37.5,626.2)"></rect><text style="text-anchor: start; font-family: &quot;Arial&quot;; font-size: 14px;" x="10" y="18" text-anchor="start" font-family="&quot;Arial&quot;" font-size="14px" stroke="none" fill="#000000" id="boott" class="flowchartt" transform="matrix(1,0,0,1,37.5,626.2)" stroke-width="1"><tspan dy="5">Jump to BL1</tspan></text><rect x="0" y="0" width="78" height="36" rx="20" ry="20" fill="#ffffff" stroke="#000000" style="" stroke-width="3" class="flowchart" id="halt" transform="matrix(1,0,0,1,237,503.6)"></rect><text style="text-anchor: start; font-family: &quot;Arial&quot;; font-size: 14px;" x="10" y="18" text-anchor="start" font-family="&quot;Arial&quot;" font-size="14px" stroke="none" fill="#000000" id="haltt" class="flowchartt" transform="matrix(1,0,0,1,237,503.6)" stroke-width="1"><tspan dy="5">Halt CPU</tspan></text><path style="" fill="#ffffff" stroke="#000000" d="M34.875,19.799999713897705L0,39.59999942779541L69.75,79.19999885559082L139.5,39.59999942779541L69.75,0L0,39.59999942779541" stroke-width="3" id="sdcard_cond" class="flowchart" transform="matrix(1,0,0,1,365,119.6)"></path><text style="text-anchor: start; font-family: &quot;Arial&quot;; font-size: 14px;" x="39.875" y="39.59999942779541" text-anchor="start" font-family="&quot;Arial&quot;" font-size="14px" stroke="none" fill="#000000" id="sdcard_condt" class="flowchartt" transform="matrix(1,0,0,1,365,119.6)" stroke-width="1"><tspan dy="-3.399998664855957">SD card</tspan><tspan dy="16.8" x="39.875">bootable?</tspan></text><rect x="0" y="0" width="163" height="36" rx="0" ry="0" fill="#ffffff" stroke="#000000" style="" stroke-width="3" class="flowchart" id="load_sdcard" transform="matrix(1,0,0,1,353.25,276.4)"></rect><text style="text-anchor: start; font-family: &quot;Arial&quot;; font-size: 14px;" x="10" y="18" text-anchor="start" font-family="&quot;Arial&quot;" font-size="14px" stroke="none" fill="#000000" id="load_sdcardt" class="flowchartt" transform="matrix(1,0,0,1,353.25,276.4)" stroke-width="1"><tspan dy="5">Load 1bl from SD card</tspan></text><path style="" fill="none" stroke="#000000" d="M87.5,63.59999942779541C87.5,63.59999942779541,87.5,101.80077028274536,87.5,115.10015974543057" stroke-width="3" marker-end="url(#raphael-marker-endblock33-obj9965)"></path><path style="" fill="none" stroke="#000000" d="M87.5,198.79999828338623C87.5,198.79999828338623,87.5,255.33073822298684,87.5,271.8924784396667" stroke-width="3" marker-end="url(#raphael-marker-endblock33-obj9966)"></path><text style="text-anchor: start; font-family: &quot;Arial&quot;; font-size: 14px;" x="92.5" y="208.79999828338623" text-anchor="start" font-family="&quot;Arial&quot;" font-size="14px" stroke="none" fill="#000000" stroke-width="1"><tspan dy="4.999995231628418">yes</tspan></text><path style="" fill="none" stroke="#000000" d="M157.25,159.19999885559082C157.25,159.19999885559082,330.1788017600775,159.19999885559082,360.4920048029817,159.19999885559082" stroke-width="3" marker-end="url(#raphael-marker-endblock33-obj9968)"></path><text style="text-anchor: start; font-family: &quot;Arial&quot;; font-size: 14px;" x="162.25" y="149.19999885559082" text-anchor="start" font-family="&quot;Arial&quot;" font-size="14px" stroke="none" fill="#000000" stroke-width="1"><tspan dy="5.000001907348633">no</tspan></text><path style="" fill="none" stroke="#000000" d="M87.5,312.39999771118164C87.5,312.39999771118164,87.5,368.93073765078225,87.5,385.49247786746207" stroke-width="3" marker-end="url(#raphael-marker-endblock33-obj9970)"></path><path style="" fill="none" stroke="#000000" d="M87.5,425.99999713897705C87.5,425.99999713897705,87.5,474.83730141911656,87.5,490.09895900666015" stroke-width="3" marker-end="url(#raphael-marker-endblock33-obj9971)"></path><path style="" fill="none" stroke="#000000" d="M87.5,548.5999965667725C87.5,548.5999965667725,87.5,605.1307365063731,87.5,621.6924767230529" stroke-width="3" marker-end="url(#raphael-marker-endblock33-obj9972)"></path><text style="text-anchor: start; font-family: &quot;Arial&quot;; font-size: 14px;" x="92.5" y="558.5999965667725" text-anchor="start" font-family="&quot;Arial&quot;" font-size="14px" stroke="none" fill="#000000" stroke-width="1"><tspan dy="5.000020980834961">yes</tspan></text><path style="" fill="none" stroke="#000000" d="M138.5,521.5999965667725C138.5,521.5999965667725,213.20033565163612,521.5999965667725,232.49549071009096,521.5999965667725" stroke-width="3" marker-end="url(#raphael-marker-endblock33-obj9974)"></path><text style="text-anchor: start; font-family: &quot;Arial&quot;; font-size: 14px;" x="143.5" y="511.59999656677246" text-anchor="start" font-family="&quot;Arial&quot;" font-size="14px" stroke="none" fill="#000000" stroke-width="1"><tspan dy="4.999990463256836">no</tspan></text><path style="" fill="none" stroke="#000000" d="M434.75,198.79999828338623C434.75,198.79999828338623,434.75,255.33073822298684,434.75,271.8924784396667" stroke-width="3" marker-end="url(#raphael-marker-endblock33-obj9976)"></path><text style="text-anchor: start; font-family: &quot;Arial&quot;; font-size: 14px;" x="439.75" y="208.79999828338623" text-anchor="start" font-family="&quot;Arial&quot;" font-size="14px" stroke="none" fill="#000000" stroke-width="1"><tspan dy="4.999995231628418">yes</tspan></text><path style="" fill="none" stroke="#000000" d="M434.75,312.39999771118164C434.75,312.39999771118164,434.75,364.99999713897705,434.75,364.99999713897705C434.75,364.99999713897705,87.5,364.99999713897705,87.5,364.99999713897705C87.5,364.99999713897705,87.5,378.30396842956543,87.5,385.50162477232516" stroke-width="3" marker-end="url(#raphael-marker-endblock33-obj9978)"></path></svg>
